<svg width="54" height="19" viewBox="0 0 54 19" fill="none" xmlns="http://www.w3.org/2000/svg">
<path d="M39.0277 0.760537C38.1699 0.399087 36.8094 0 35.1272 0C30.8326 0 27.8084 2.43241 27.7898 5.91001C27.7542 8.47578 29.9551 9.90087 31.6012 10.7564C33.2837 11.6306 33.8556 12.2012 33.8556 12.9804C33.8385 14.1772 32.4961 14.7288 31.244 14.7288C29.5078 14.7288 28.5775 14.4444 27.1637 13.7786L26.5911 13.4932L25.9825 17.5032C27.0025 17.9968 28.8816 18.4348 30.8326 18.4539C35.3957 18.4539 38.3664 16.0592 38.4016 12.3532C38.4189 10.3197 37.2568 8.76146 34.7512 7.48817C33.2302 6.6708 32.2987 6.11966 32.2987 5.28335C32.3165 4.52306 33.0865 3.74434 34.8035 3.74434C36.2173 3.7062 37.256 4.06714 38.0429 4.42834L38.4363 4.61803L39.0277 0.760537Z" fill="white"/>
<path d="M23.2631 18.188H18.9143L21.6343 0.324069H25.9829L23.2631 18.188Z" fill="white"/>
<path fill-rule="evenodd" clip-rule="evenodd" d="M50.1756 0.324069H46.8118C45.7745 0.324069 44.9864 0.646874 44.5388 1.80624L38.0793 18.1877H42.6423C42.6423 18.1877 43.3935 15.9829 43.555 15.508H49.1385C49.2634 16.1352 49.6574 18.1877 49.6574 18.1877H53.684L50.1756 0.324069ZM44.8076 11.8594C45.1657 10.8332 46.5438 6.86125 46.5438 6.86125C46.5365 6.8766 46.593 6.71022 46.6771 6.46254L46.678 6.46003C46.8028 6.09248 46.988 5.54716 47.116 5.15099L47.4199 6.69025C47.4199 6.69025 48.2434 10.9663 48.4222 11.8594H44.8076Z" fill="white"/>
<path d="M15.282 0.324069L11.0231 12.5055L10.5577 10.035L9.03671 1.8254C8.7863 0.684464 8.01675 0.361407 7.06837 0.323771H0.0715799L0 0.684717C1.70644 1.1482 3.23269 1.81608 4.57001 2.64649L8.44619 18.169H13.0449L19.8805 0.324069H15.282Z" fill="white"/>
</svg>
