<svg width="122" height="32" viewBox="0 0 122 32" fill="none" xmlns="http://www.w3.org/2000/svg">
<path fill-rule="evenodd" clip-rule="evenodd" d="M40.9862 14.1026C41.918 14.9229 42.3813 15.9784 42.4776 17.1957C42.5742 18.413 42.3881 19.5765 41.653 20.5917C40.7149 21.8877 39.4049 22.4526 37.8283 22.4402C36.6545 22.431 36.056 22.18 35.0188 21.2949V22.2842H32.4777V9.66786H35.1203V14.0671C35.1635 14.0429 35.2048 14.0156 35.244 13.9855C36.0262 13.2136 37.0018 12.9664 38.0602 12.9957C39.1581 13.0255 40.1525 13.3691 40.9862 14.1026ZM36.934 20.2163C37.9539 20.4146 38.894 20.0344 39.4126 19.2083C39.7618 18.652 39.8369 18.0338 39.7811 17.3987C39.5862 15.1874 37.4103 14.7443 36.184 15.5267C35.3907 16.0336 35.1001 16.8064 35.0905 17.7184C35.0986 17.7903 35.1053 17.8624 35.112 17.9346C35.1269 18.0941 35.1419 18.254 35.1713 18.4106C35.3464 19.3312 36.0469 20.0445 36.934 20.2163Z" fill="white"/>
<path d="M62.7031 22.2846H65.3678L65.3693 21.9903C65.3693 21.5675 65.3697 21.1445 65.3701 20.7216C65.3712 19.5584 65.3723 18.3952 65.3649 17.2335C65.3659 16.8236 65.3367 16.4142 65.2774 16.0086C65.0782 14.7303 64.4278 13.742 63.1856 13.3014C61.5206 12.7086 59.9436 12.8867 58.5797 14.1174C58.5508 14.1342 58.5201 14.1479 58.4883 14.1582V13.1387H55.9641V22.2807H58.61C58.61 22.14 58.6097 22.0013 58.6094 21.864V21.8513C58.6087 21.5749 58.6081 21.3034 58.61 21.0327C58.6125 20.6747 58.6127 20.3165 58.6129 19.9584C58.6134 19.0851 58.6139 18.2119 58.648 17.3401C58.6908 16.1919 59.4004 15.446 60.5353 15.3135C61.5663 15.1935 62.4558 15.603 62.6425 16.8294C62.6836 17.1155 62.7039 17.4043 62.7031 17.6934C62.7053 18.6486 62.7046 19.6038 62.7038 20.5589C62.7035 21.0364 62.7031 21.5139 62.7031 21.9913V22.2846Z" fill="white"/>
<path d="M111.263 21.4525L111.254 21.4721C111.347 21.5176 111.436 21.5638 111.523 21.609C111.666 21.6832 111.803 21.7546 111.945 21.8158C113.351 22.3846 114.813 22.5617 116.315 22.3846C117.159 22.2847 117.965 22.0476 118.638 21.5028C119.465 20.8356 119.733 19.9582 119.541 18.9343C119.367 18.0079 118.732 17.479 117.883 17.2217C117.419 17.0813 116.94 16.988 116.462 16.8946C116.227 16.8489 115.992 16.8031 115.759 16.7518C115.651 16.7278 115.542 16.7053 115.433 16.6827C115.107 16.6154 114.78 16.548 114.467 16.4426C113.951 16.2689 113.874 15.6828 114.311 15.3602C114.469 15.2441 114.664 15.1366 114.853 15.113C115.308 15.0504 115.767 15.0252 116.225 15.0377C116.992 15.0718 117.71 15.3166 118.402 15.691L118.668 15.1262C118.876 14.6845 119.081 14.2465 119.289 13.805C119.271 13.7941 119.254 13.7839 119.238 13.7742C119.195 13.7479 119.16 13.7263 119.125 13.709L119.072 13.6832L119.042 13.6681C118.932 13.6137 118.823 13.5596 118.707 13.517C117.46 13.0486 116.169 12.9098 114.849 13.0457C114.021 13.1316 113.23 13.3558 112.551 13.8641C111.67 14.5236 111.363 15.4212 111.522 16.4834C111.679 17.5332 112.399 18.0857 113.347 18.3583C113.777 18.4817 114.22 18.5611 114.663 18.6406C114.896 18.6822 115.129 18.724 115.36 18.7721C115.431 18.787 115.503 18.8017 115.575 18.8164C115.937 18.8904 116.3 18.9646 116.652 19.0735C116.964 19.1695 117.075 19.3927 117.037 19.6927C116.989 20.0729 116.703 20.225 116.381 20.3167C115.828 20.4737 115.26 20.4612 114.697 20.3964C113.797 20.3004 112.929 20.0125 112.15 19.5521C111.856 20.1808 111.567 20.7997 111.263 21.4525Z" fill="white"/>
<path d="M101.741 21.4508L101.839 21.2414C102.091 20.7008 102.337 20.1722 102.584 19.6436C102.601 19.6133 102.62 19.5844 102.642 19.5572C103.428 20.0238 104.274 20.3137 105.175 20.3843C105.594 20.4171 106.02 20.383 106.444 20.3491C106.566 20.3393 106.689 20.3296 106.811 20.3214C106.93 20.3139 107.05 20.2475 107.16 20.1872L107.168 20.1827C107.414 20.0464 107.548 19.8347 107.524 19.5481C107.517 19.4293 107.471 19.3162 107.392 19.2266C107.314 19.1369 107.208 19.0758 107.091 19.0528C106.752 18.9703 106.409 18.9019 106.066 18.8336C105.88 18.7965 105.694 18.7594 105.509 18.7201C105.337 18.6838 105.165 18.6506 104.993 18.6174C104.57 18.536 104.148 18.4546 103.74 18.3275C102.869 18.0568 102.213 17.534 102.016 16.5812C101.775 15.4211 102.235 14.3425 103.245 13.7128C103.873 13.3211 104.57 13.1233 105.299 13.0465C106.635 12.9025 107.941 13.0465 109.204 13.5203C109.33 13.5677 109.451 13.6276 109.582 13.6918C109.644 13.7224 109.708 13.7541 109.776 13.7857L108.917 15.6121C108.725 15.5549 108.537 15.4956 108.35 15.4369C107.933 15.3055 107.526 15.1773 107.112 15.0841C106.534 14.9517 105.933 14.9564 105.358 15.098C105.179 15.1442 105.008 15.216 104.849 15.3112C104.62 15.447 104.485 15.6548 104.517 15.9352C104.548 16.2064 104.723 16.3801 104.969 16.4488C105.383 16.5651 105.804 16.6552 106.225 16.7449L106.238 16.7478C106.465 16.7959 106.691 16.8392 106.918 16.8824C107.317 16.9586 107.716 17.0346 108.109 17.1366C109.103 17.3953 109.869 17.93 110.033 19.024C110.217 20.2384 109.759 21.1686 108.72 21.7705C107.835 22.2836 106.858 22.4305 105.854 22.4425C104.587 22.4564 103.364 22.2404 102.205 21.7158C102.116 21.6773 102.031 21.6299 101.946 21.5827C101.925 21.571 101.904 21.5593 101.883 21.5478C101.859 21.5336 101.836 21.5172 101.807 21.4968C101.788 21.4834 101.767 21.4681 101.741 21.4508Z" fill="white"/>
<path fill-rule="evenodd" clip-rule="evenodd" d="M89.4693 16.5933C88.7765 13.1411 85.1511 12.3645 83.0473 13.4253C82.8159 13.542 82.6073 13.7041 82.3942 13.8695C82.2972 13.9449 82.199 14.0211 82.0976 14.0939V13.1397H79.5633V25.6H82.2092V21.3789C83.3042 22.2174 83.8348 22.4406 84.9144 22.4392C86.8046 22.4392 88.257 21.6587 89.1094 19.9403C89.6362 18.88 89.6992 17.7381 89.4693 16.5933ZM86.093 19.6816C85.3714 20.3186 84.5285 20.4266 83.6506 20.1016C82.7634 19.7738 82.3199 19.0682 82.2073 18.1547C82.1149 17.392 82.2039 16.6552 82.7038 16.0312C83.3446 15.231 84.2081 15.0232 85.1621 15.2603C86.0983 15.4912 86.6256 16.1517 86.8137 17.0843C86.8419 17.2233 86.8538 17.3664 86.8656 17.5086C86.8718 17.5824 86.878 17.6564 86.8863 17.729C86.8719 18.483 86.6756 19.168 86.093 19.6816Z" fill="white"/>
<path fill-rule="evenodd" clip-rule="evenodd" d="M71.4383 13.1061C73.0975 12.7889 74.6495 13.0682 75.9268 14.2519C76.9885 15.2354 77.3744 16.5026 77.32 17.9196C77.2984 18.4668 77.2902 18.4668 76.7312 18.4668H70.3169C70.5006 19.2549 70.9505 19.7973 71.6639 20.0637C72.908 20.5284 74.0881 20.4079 75.1397 19.5357C75.1593 19.5196 75.1789 19.5038 75.2014 19.4859C75.2209 19.4702 75.2426 19.4529 75.2682 19.432L76.6802 20.9546C76.3225 21.3816 75.8727 21.7224 75.3644 21.9516C74.3705 22.4157 73.3164 22.4997 72.2402 22.4157C71.4262 22.3524 70.6478 22.1484 69.9382 21.7394C68.2468 20.7655 67.5078 19.2607 67.6435 17.3613C67.8027 15.1322 69.2484 13.5242 71.4383 13.1061ZM70.3096 16.9087H74.7765C74.8299 15.9876 73.786 15.0401 72.691 15.0055C71.4051 14.9633 70.3327 15.8129 70.3096 16.9087Z" fill="white"/>
<path fill-rule="evenodd" clip-rule="evenodd" d="M53.6845 17.0364C53.545 15.7538 52.9835 14.6844 51.9256 13.913C50.8677 13.1416 49.6756 12.9256 48.3916 13.0202C46.0064 13.1954 44.1773 15.0108 44.0431 17.3882C43.942 19.1733 44.5544 20.6599 46.1204 21.5978C47.9538 22.696 49.8993 22.7311 51.8578 21.904C52.336 21.702 52.7324 21.3693 53.0817 20.958L51.6606 19.4263C51.1341 19.9427 50.4392 20.2533 49.7025 20.3013C48.8443 20.3652 48.0409 20.2245 47.375 19.6293C47.0303 19.3264 46.8002 18.9147 46.7232 18.4629H53.6912C53.6915 18.3067 53.6958 18.1532 53.7001 18.002C53.7094 17.6714 53.7185 17.3515 53.6845 17.0364ZM46.7087 16.9058C46.7569 16.0418 47.529 14.9858 48.9872 15.0036C50.1365 15.016 51.1597 15.8858 51.1848 16.9058H46.7087Z" fill="white"/>
<path fill-rule="evenodd" clip-rule="evenodd" d="M97.0782 13.205C98.7255 13.6375 99.7059 14.8207 99.7516 16.5136C99.7839 17.7182 99.7804 18.9236 99.7768 20.1276C99.7752 20.6997 99.7735 21.2714 99.7757 21.8426V22.2746H97.301V21.2666C97.2821 21.2715 97.266 21.2743 97.2527 21.2766C97.2311 21.2803 97.217 21.2827 97.211 21.291C96.6635 22.0715 95.8567 22.3514 94.9566 22.4214C94.0666 22.4882 93.1949 22.4099 92.3977 21.9602C91.4033 21.3986 90.9627 20.5283 91.0478 19.408C91.1315 18.3098 91.7646 17.6138 92.7749 17.2375C93.4412 16.9888 94.1402 16.9245 94.846 16.9211H96.93C96.961 16.9208 96.992 16.9175 97.0267 16.9137C97.0454 16.9117 97.0651 16.9095 97.0864 16.9077C97.1807 16.0816 96.6515 15.3707 95.7961 15.1955C94.6064 14.9517 93.5066 15.2037 92.4896 15.8483C92.4492 15.8743 92.4098 15.904 92.3357 15.952L91.3788 14.1059C91.9176 13.7215 92.5079 13.4719 93.1333 13.301C94.4385 12.9439 95.7581 12.8584 97.0782 13.205ZM96.6404 20.1232C96.8839 19.9216 97.0797 19.6629 97.1056 19.3317H97.1066C97.121 19.1428 97.1172 18.9519 97.1133 18.751C97.1115 18.6628 97.1098 18.5728 97.1095 18.4802C97.0829 18.4787 97.0572 18.4769 97.0321 18.4752C96.9767 18.4713 96.924 18.4677 96.8714 18.4677C96.7131 18.4682 96.5548 18.4679 96.3964 18.4676C95.9412 18.4669 95.486 18.4661 95.0312 18.4835C94.7739 18.4956 94.5198 18.5451 94.2769 18.6304C93.8299 18.7845 93.6192 19.1315 93.6409 19.6005C93.6611 20.0455 93.9016 20.3531 94.3014 20.4971C95.1423 20.8034 95.9395 20.7026 96.6404 20.1232Z" fill="white"/>
<path d="M7.06946 20.7602C4.4716 20.7798 2.16239 18.7298 2.01807 16.0355C1.94254 14.6037 2.4063 13.3518 3.40167 12.3165C4.39703 11.2811 5.62332 10.7882 7.06176 10.7512V6.42738C7.10602 6.4221 7.14162 6.41634 7.1777 6.41394C7.22581 6.41154 7.27392 6.41058 7.32203 6.41058C10.6482 6.40818 13.9745 6.38802 17.3007 6.41058C19.074 6.4221 20.6471 7.01058 21.9191 8.27873C22.8134 9.17201 23.3022 10.2544 23.2786 11.5331C23.2594 12.6078 22.8534 13.539 22.1582 14.3512C21.7377 14.8366 21.2375 15.2469 20.6789 15.5646L20.4999 15.6693C20.5528 15.7034 20.5961 15.7317 20.6365 15.7566C21.5987 16.313 22.3901 17.0474 22.8572 18.0688C23.5981 19.6888 23.3864 21.2195 22.3112 22.6211C21.4736 23.7146 20.3277 24.3544 19.0114 24.7082C18.3993 24.8699 17.7684 24.9495 17.1352 24.9448C16.0229 24.9422 14.911 24.9422 13.7994 24.9448C12.4202 24.9448 11.04 24.9474 9.65866 24.9525C8.85813 24.9525 8.05809 24.9602 7.25805 24.964H7.06898L7.06946 20.7602Z" fill="white"/>
<path d="M7.03936 20.8058C9.82253 20.8058 12.0787 18.5547 12.0787 15.7778C12.0787 13.0009 9.82253 10.7498 7.03936 10.7498C4.2562 10.7498 2 13.0009 2 15.7778C2 18.5547 4.2562 20.8058 7.03936 20.8058Z" fill="#ED0E61"/>
</svg>
